<svg width="128" height="128" viewBox="0 0 128 128" fill="none" xmlns="http://www.w3.org/2000/svg">
<rect width="128" height="128" fill="#F6F6F6"/>
<path d="M25.1133 42.3477L11.1211 89H4.51172L21 37.8125H25.1484L25.1133 42.3477ZM36.4336 89L22.4414 42.3477L22.3711 37.8125H26.5547L43.043 89H36.4336ZM36.4336 70.0508V75.6055H11.7539V70.0508H36.4336ZM81.7148 63.5117V82.6016C81.1523 83.3516 80.2969 84.2891 79.1484 85.4141C78.0234 86.5391 76.4414 87.5352 74.4023 88.4023C72.3633 89.2695 69.6914 89.7031 66.3867 89.7031C63.7383 89.7031 61.3125 89.2578 59.1094 88.3672C56.9297 87.4766 55.043 86.1406 53.4492 84.3594C51.8789 82.5547 50.6602 80.3164 49.793 77.6445C48.9258 74.9492 48.4922 71.7969 48.4922 68.1875V58.5898C48.4922 55.0039 48.8555 51.8633 49.582 49.168C50.3086 46.4727 51.3867 44.2344 52.8164 42.4531C54.2695 40.6719 56.0625 39.3359 58.1953 38.4453C60.3516 37.5547 62.8594 37.1094 65.7188 37.1094C69.0234 37.1094 71.8359 37.7305 74.1562 38.9727C76.4766 40.2148 78.2695 42.0078 79.5352 44.3516C80.8242 46.6953 81.5508 49.5078 81.7148 52.7891H75.2461C75.082 50.6797 74.6367 48.875 73.9102 47.375C73.1836 45.8516 72.1523 44.6914 70.8164 43.8945C69.4805 43.0742 67.7812 42.6641 65.7188 42.6641C63.75 42.6641 62.0859 42.9922 60.7266 43.6484C59.3672 44.3047 58.2539 45.2891 57.3867 46.6016C56.543 47.9141 55.9219 49.5664 55.5234 51.5586C55.1484 53.5508 54.9609 55.8711 54.9609 58.5195V68.1875C54.9609 70.9062 55.2305 73.2734 55.7695 75.2891C56.3086 77.3047 57.0703 78.9688 58.0547 80.2812C59.0625 81.5938 60.2695 82.5781 61.6758 83.2344C63.082 83.8672 64.6641 84.1836 66.4219 84.1836C68.4141 84.1836 69.9844 83.9727 71.1328 83.5508C72.2812 83.1289 73.1602 82.6484 73.7695 82.1094C74.4023 81.5703 74.9062 81.1367 75.2812 80.8086V68.9961H65.8945V63.5117H81.7148ZM114.586 76.0625C114.586 74.8672 114.445 73.8125 114.164 72.8984C113.883 71.9609 113.391 71.1172 112.688 70.3672C111.984 69.6172 111 68.9023 109.734 68.2227C108.469 67.543 106.863 66.8516 104.918 66.1484C102.809 65.3984 100.898 64.5664 99.1875 63.6523C97.4766 62.7148 96.0117 61.6484 94.793 60.4531C93.5977 59.2578 92.6719 57.8867 92.0156 56.3398C91.3594 54.793 91.0312 53.0234 91.0312 51.0312C91.0312 49.0391 91.3711 47.1992 92.0508 45.5117C92.7539 43.8242 93.7383 42.3594 95.0039 41.1172C96.293 39.8516 97.8398 38.8672 99.6445 38.1641C101.449 37.4609 103.465 37.1094 105.691 37.1094C109.02 37.1094 111.82 37.8477 114.094 39.3242C116.391 40.7773 118.125 42.6875 119.297 45.0547C120.469 47.3984 121.055 49.9062 121.055 52.5781H114.586C114.586 50.6562 114.27 48.957 113.637 47.4805C113.027 45.9805 112.066 44.8086 110.754 43.9648C109.465 43.0977 107.777 42.6641 105.691 42.6641C103.816 42.6641 102.27 43.0273 101.051 43.7539C99.8555 44.4805 98.9648 45.4648 98.3789 46.707C97.8164 47.9492 97.5352 49.3672 97.5352 50.9609C97.5352 52.0391 97.7227 53.0234 98.0977 53.9141C98.4727 54.7812 99.0469 55.5898 99.8203 56.3398C100.617 57.0898 101.602 57.7812 102.773 58.4141C103.969 59.0469 105.375 59.6562 106.992 60.2422C109.5 61.0625 111.645 61.9766 113.426 62.9844C115.207 63.9922 116.66 65.1289 117.785 66.3945C118.91 67.6367 119.73 69.0547 120.246 70.6484C120.785 72.2188 121.055 74 121.055 75.9922C121.055 78.0781 120.703 79.9648 120 81.6523C119.32 83.3398 118.324 84.7812 117.012 85.9766C115.699 87.1719 114.117 88.0977 112.266 88.7539C110.414 89.3867 108.328 89.7031 106.008 89.7031C103.992 89.7031 102.012 89.375 100.066 88.7188C98.1445 88.0625 96.3984 87.0781 94.8281 85.7656C93.2578 84.4531 92.0039 82.8359 91.0664 80.9141C90.1289 78.9688 89.6602 76.7188 89.6602 74.1641H96.1289C96.1289 75.9219 96.3867 77.4336 96.9023 78.6992C97.418 79.9414 98.1328 80.9727 99.0469 81.793C99.9609 82.6133 101.004 83.2227 102.176 83.6211C103.371 83.9961 104.648 84.1836 106.008 84.1836C107.883 84.1836 109.453 83.8555 110.719 83.1992C112.008 82.543 112.969 81.6055 113.602 80.3867C114.258 79.168 114.586 77.7266 114.586 76.0625Z" fill="black"/>
</svg>
